<svg width="28" height="27" viewBox="0 0 28 27" fill="none" xmlns="http://www.w3.org/2000/svg">
<path d="M14.0171 21.9813L13.7003 22.55C13.8973 22.6597 14.1369 22.6597 14.3338 22.55L14.0171 21.9813ZM14.0171 8.05291L13.418 8.30752C13.5201 8.54785 13.7559 8.70389 14.0171 8.70389C14.2782 8.70389 14.5141 8.54785 14.6162 8.30752L14.0171 8.05291ZM3.60153 10.0168C3.60153 13.5831 6.24468 16.7429 8.7017 18.9324C9.95094 20.0456 11.1972 20.9476 12.1296 21.5708C12.5965 21.8829 12.9863 22.1261 13.2607 22.2919C13.3979 22.3749 13.5063 22.4386 13.5811 22.4819C13.6186 22.5036 13.6476 22.5202 13.6677 22.5316C13.6777 22.5373 13.6855 22.5417 13.691 22.5448C13.6937 22.5463 13.6958 22.5475 13.6974 22.5484C13.6982 22.5488 13.6988 22.5492 13.6993 22.5495C13.6996 22.5496 13.6998 22.5497 13.6999 22.5498C13.7002 22.5499 13.7003 22.55 14.0171 21.9813C14.3338 21.4126 14.3339 21.4127 14.334 21.4127C14.334 21.4127 14.334 21.4127 14.3339 21.4127C14.3338 21.4126 14.3336 21.4125 14.3332 21.4122C14.3324 21.4118 14.331 21.411 14.329 21.4099C14.3251 21.4077 14.3189 21.4042 14.3105 21.3994C14.2936 21.3898 14.2678 21.3751 14.2337 21.3553C14.1655 21.3158 14.0641 21.2563 13.9343 21.1778C13.6747 21.0208 13.3016 20.7882 12.8531 20.4884C11.9547 19.888 10.7598 19.0225 9.56788 17.9604C7.14261 15.7992 4.90347 12.9767 4.90347 10.0168H3.60153ZM14.6162 7.79831C13.4133 4.96769 10.6842 3.6737 8.228 4.02852C6.99698 4.20636 5.83087 4.79958 4.9744 5.82028C4.11615 6.84311 3.60153 8.25548 3.60153 10.0168H4.90347C4.90347 8.51511 5.33818 7.41221 5.97175 6.65715C6.60709 5.89998 7.47527 5.45272 8.41415 5.31709C10.2978 5.04498 12.451 6.03209 13.418 8.30752L14.6162 7.79831ZM23.1307 10.0168C23.1307 12.9767 20.8915 15.7992 18.4663 17.9604C17.2744 19.0225 16.0794 19.888 15.1811 20.4884C14.7325 20.7882 14.3595 21.0208 14.0998 21.1778C13.97 21.2563 13.8686 21.3158 13.8005 21.3553C13.7664 21.3751 13.7406 21.3898 13.7237 21.3994C13.7153 21.4042 13.709 21.4077 13.7051 21.4099C13.7032 21.411 13.7018 21.4118 13.701 21.4122C13.7006 21.4125 13.7003 21.4126 13.7002 21.4127C13.7002 21.4127 13.7002 21.4127 13.7002 21.4127C13.7002 21.4127 13.7003 21.4126 14.0171 21.9813C14.3338 22.55 14.334 22.5499 14.3342 22.5498C14.3343 22.5497 14.3346 22.5496 14.3348 22.5495C14.3353 22.5492 14.336 22.5488 14.3367 22.5484C14.3383 22.5475 14.3405 22.5463 14.3432 22.5448C14.3487 22.5417 14.3565 22.5373 14.3665 22.5316C14.3865 22.5202 14.4156 22.5036 14.453 22.4819C14.5279 22.4386 14.6363 22.3749 14.7735 22.2919C15.0478 22.1261 15.4376 21.8829 15.9045 21.5708C16.837 20.9476 18.0832 20.0456 19.3325 18.9324C21.7895 16.7429 24.4326 13.5831 24.4326 10.0168H23.1307ZM14.6162 8.30752C15.5832 6.03209 17.7364 5.04498 19.62 5.31709C20.5589 5.45272 21.4271 5.89998 22.0624 6.65715C22.696 7.41221 23.1307 8.51511 23.1307 10.0168H24.4326C24.4326 8.25548 23.918 6.84311 23.0598 5.82028C22.2033 4.79958 21.0372 4.20636 19.8062 4.02852C17.35 3.6737 14.6209 4.96769 13.418 7.79831L14.6162 8.30752Z" fill="#B92728"/>
</svg>
