<svg width="28" height="27" viewBox="0 0 28 27" fill="none" xmlns="http://www.w3.org/2000/svg">
<path d="M14.0139 7.33446C18.1259 7.33446 21.793 9.64541 23.5832 13.3017C21.793 16.958 18.1367 19.2689 14.0139 19.2689C9.89107 19.2689 6.23478 16.958 4.4446 13.3017C6.23478 9.64541 9.90192 7.33446 14.0139 7.33446ZM14.0139 5.16455C8.58912 5.16455 3.95638 8.53875 2.07941 13.3017C3.95638 18.0646 8.58912 21.4388 14.0139 21.4388C19.4387 21.4388 24.0714 18.0646 25.9484 13.3017C24.0714 8.53875 19.4387 5.16455 14.0139 5.16455ZM14.0139 10.5893C15.5111 10.5893 16.7263 11.8045 16.7263 13.3017C16.7263 14.7989 15.5111 16.0141 14.0139 16.0141C12.5167 16.0141 11.3015 14.7989 11.3015 13.3017C11.3015 11.8045 12.5167 10.5893 14.0139 10.5893ZM14.0139 8.41941C11.3232 8.41941 9.1316 10.611 9.1316 13.3017C9.1316 15.9924 11.3232 18.184 14.0139 18.184C16.7046 18.184 18.8962 15.9924 18.8962 13.3017C18.8962 10.611 16.7046 8.41941 14.0139 8.41941Z" fill="#B92728"/>
</svg>
