<svg width="27" height="27" viewBox="0 0 27 27" fill="none" xmlns="http://www.w3.org/2000/svg">
<path d="M17.8247 14.3866C18.6384 14.3866 19.3545 13.9418 19.7234 13.2691L23.6075 6.22778C24.0089 5.51172 23.4882 4.62205 22.6636 4.62205H6.60629L5.58643 2.45215H2.03864V4.62205H4.20854L8.11437 12.8568L6.64968 15.5041C5.85767 16.958 6.89922 18.7264 8.54835 18.7264H21.5678V16.5565H8.54835L9.7418 14.3866H17.8247ZM7.63699 6.79196H20.8192L17.8247 12.2167H10.2083L7.63699 6.79196ZM8.54835 19.8114C7.3549 19.8114 6.3893 20.7879 6.3893 21.9813C6.3893 23.1747 7.3549 24.1512 8.54835 24.1512C9.7418 24.1512 10.7183 23.1747 10.7183 21.9813C10.7183 20.7879 9.7418 19.8114 8.54835 19.8114ZM19.3979 19.8114C18.2044 19.8114 17.2388 20.7879 17.2388 21.9813C17.2388 23.1747 18.2044 24.1512 19.3979 24.1512C20.5913 24.1512 21.5678 23.1747 21.5678 21.9813C21.5678 20.7879 20.5913 19.8114 19.3979 19.8114Z" fill="#B92728"/>
</svg>
