<svg width="29" height="37" viewBox="0 0 29 37" fill="none" xmlns="http://www.w3.org/2000/svg">
<path d="M27.2846 33.7703C17.4744 33.7703 9.52201 25.8176 9.52201 16.0077C9.52201 9.51882 13.0029 3.8451 18.1976 0.745483C8.6846 1.08311 1.07532 8.89676 1.07532 18.4919C1.07532 28.3018 9.02801 36.2545 18.8379 36.2545C22.1592 36.2545 25.2658 35.3405 27.9249 33.7541C27.7121 33.7616 27.4994 33.7703 27.2846 33.7703Z" fill="#C09302"/>
<path d="M18.8382 37C8.63259 37 0.330139 28.6972 0.330139 18.4919C0.330139 8.47819 8.1672 0.355537 18.1717 0.000279212C18.5099 -0.0124395 18.8166 0.207826 18.9125 0.534178C19.0091 0.860529 18.8718 1.21058 18.5795 1.38489C13.4521 4.4449 10.267 10.0478 10.267 16.0077C10.267 25.3912 17.9011 33.0251 27.2846 33.0251C27.4647 33.0251 27.6431 33.0184 27.8214 33.0121L27.8986 33.0095C28.2331 32.9997 28.5435 33.217 28.6395 33.5434C28.736 33.8697 28.5987 34.2198 28.3065 34.3941C25.4497 36.099 22.1755 37 18.8382 37ZM15.4056 1.82137C7.59573 3.39994 1.82026 10.249 1.82026 18.4919C1.82026 27.8754 9.4544 35.5093 18.8379 35.5093C20.9415 35.5093 23.0175 35.1202 24.9614 34.3704C15.8487 33.2243 8.77655 25.4265 8.77655 16.0077C8.77655 10.5193 11.2599 5.30949 15.4056 1.82137Z" fill="#E5E9F2"/>
</svg>
