<svg width="26" height="22" viewBox="0 0 26 22" fill="none" xmlns="http://www.w3.org/2000/svg">
<path d="M13 21L12.5134 21.8736C12.8159 22.0421 13.1841 22.0421 13.4866 21.8736L13 21ZM13 4.95276L12.0797 5.34387C12.2365 5.71306 12.5989 5.95276 13 5.95276C13.4011 5.95276 13.7635 5.71306 13.9203 5.34387L13 4.95276ZM0.75 7.21542C0.75 11.4406 3.87281 15.1459 6.7097 17.6739C8.15998 18.9663 9.60563 20.0125 10.6865 20.7349C11.2279 21.0968 11.6803 21.379 11.9992 21.5718C12.1587 21.6682 12.2849 21.7424 12.3724 21.7931C12.4162 21.8185 12.4503 21.838 12.474 21.8514C12.4859 21.8582 12.4952 21.8634 12.5017 21.8671C12.505 21.869 12.5077 21.8704 12.5096 21.8715C12.5106 21.8721 12.5114 21.8725 12.512 21.8729C12.5124 21.873 12.5127 21.8732 12.5129 21.8733C12.5132 21.8735 12.5134 21.8736 13 21C13.4866 20.1264 13.4867 20.1265 13.4869 20.1265C13.4869 20.1265 13.487 20.1266 13.4869 20.1266C13.4869 20.1265 13.4867 20.1264 13.4863 20.1262C13.4855 20.1258 13.4841 20.1249 13.4819 20.1238C13.4777 20.1214 13.4709 20.1175 13.4614 20.1122C13.4426 20.1015 13.4135 20.0849 13.3749 20.0625C13.2976 20.0177 13.1822 19.9499 13.034 19.8604C12.7377 19.6812 12.3111 19.4151 11.7979 19.0721C10.7694 18.3847 9.40252 17.3946 8.0403 16.1807C5.25219 13.6962 2.75 10.5091 2.75 7.21542H0.75ZM13.9203 4.56164C12.4891 1.19381 9.23431 -0.355958 6.29452 0.0687295C4.82013 0.281723 3.41942 0.993219 2.3902 2.21979C1.35825 3.44963 0.75 5.13629 0.75 7.21542H2.75C2.75 5.53511 3.2355 4.32386 3.9223 3.50537C4.61183 2.68361 5.55487 2.19634 6.58048 2.04818C8.64069 1.75056 11.0109 2.8289 12.0797 5.34387L13.9203 4.56164ZM23.25 7.21542C23.25 10.5091 20.7478 13.6962 17.9597 16.1807C16.5975 17.3946 15.2306 18.3847 14.2021 19.0721C13.6889 19.4151 13.2623 19.6812 12.966 19.8604C12.8178 19.9499 12.7024 20.0177 12.6251 20.0625C12.5865 20.0849 12.5574 20.1015 12.5386 20.1122C12.5291 20.1175 12.5223 20.1214 12.5181 20.1238C12.5159 20.1249 12.5145 20.1258 12.5137 20.1262C12.5133 20.1264 12.5131 20.1265 12.5131 20.1266C12.513 20.1266 12.5131 20.1265 12.5131 20.1265C12.5133 20.1265 12.5134 20.1264 13 21C13.4866 21.8736 13.4868 21.8735 13.4871 21.8733C13.4873 21.8732 13.4876 21.873 13.488 21.8729C13.4886 21.8725 13.4894 21.8721 13.4904 21.8715C13.4923 21.8704 13.495 21.869 13.4983 21.8671C13.5048 21.8634 13.5141 21.8582 13.526 21.8514C13.5497 21.838 13.5838 21.8185 13.6276 21.7931C13.7151 21.7424 13.8413 21.6682 14.0008 21.5718C14.3197 21.379 14.7721 21.0968 15.3135 20.7349C16.3944 20.0125 17.84 18.9663 19.2903 17.6739C22.1272 15.1459 25.25 11.4406 25.25 7.21542H23.25ZM13.9203 5.34387C14.9891 2.8289 17.3593 1.75056 19.4195 2.04818C20.4451 2.19634 21.3882 2.68361 22.0777 3.50537C22.7645 4.32386 23.25 5.53511 23.25 7.21542H25.25C25.25 5.13629 24.6417 3.44963 23.6098 2.21979C22.5806 0.993219 21.1799 0.281723 19.7055 0.0687295C16.7657 -0.355958 13.5109 1.19381 12.0797 4.56164L13.9203 5.34387Z" fill="white"/>
</svg>
