<svg width="21" height="20" viewBox="0 0 21 20" fill="none" xmlns="http://www.w3.org/2000/svg">
<path d="M11.3489 0.751862C10.8803 0.283233 10.1205 0.283233 9.65186 0.751862L1.25186 9.15186C0.783233 9.62049 0.783233 10.3803 1.25186 10.8489C1.72049 11.3175 2.48029 11.3175 2.94892 10.8489L3.30039 10.4974V18.4004C3.30039 19.0631 3.83765 19.6004 4.50039 19.6004H6.90039C7.56313 19.6004 8.10039 19.0631 8.10039 18.4004V16.0004C8.10039 15.3376 8.63765 14.8004 9.30039 14.8004H11.7004C12.3631 14.8004 12.9004 15.3376 12.9004 16.0004V18.4004C12.9004 19.0631 13.4376 19.6004 14.1004 19.6004H16.5004C17.1631 19.6004 17.7004 19.0631 17.7004 18.4004V10.4974L18.0519 10.8489C18.5205 11.3175 19.2803 11.3175 19.7489 10.8489C20.2175 10.3803 20.2175 9.62049 19.7489 9.15186L11.3489 0.751862Z" fill="#FBFCFC"/>
</svg>
