<svg width="32" height="24" viewBox="0 0 32 24" fill="none" xmlns="http://www.w3.org/2000/svg">
<rect width="32" height="24" rx="2" fill="white"/>
<mask id="mask0_493_16630" style="mask-type:alpha" maskUnits="userSpaceOnUse" x="0" y="0" width="32" height="24">
<rect width="32" height="24" rx="2" fill="white"/>
</mask>
<g mask="url(#mask0_493_16630)">
<rect width="32" height="24" fill="#128C4B"/>
<path fill-rule="evenodd" clip-rule="evenodd" d="M7.61902 14.4H19.8095V13.103C19.8095 12.6016 20.3421 12.2796 20.7861 12.5127L21.3333 12.8V14.4H23.7143C24.0824 14.4 24.3809 14.6985 24.3809 15.0667V16.2667C24.3809 17.003 23.784 17.6 23.0476 17.6H20.4762C20.108 17.6 19.8095 17.3015 19.8095 16.9333V16H9.42854C9.24609 16 9.07161 15.9252 8.94578 15.7931L7.61902 14.4Z" fill="white"/>
<path fill-rule="evenodd" clip-rule="evenodd" d="M7.61902 9.73333C7.61902 9.64774 7.65194 9.56542 7.71097 9.50344L8.16199 9.02988C8.28459 8.90114 8.28459 8.69884 8.16199 8.57011L7.71097 8.09655C7.65194 8.03457 7.61902 7.95225 7.61902 7.86666V6.73333C7.61902 6.54923 7.76826 6.39999 7.95235 6.39999H8.84795C9.01081 6.39999 9.14283 6.53202 9.14283 6.69487C9.14283 7.00912 9.56884 7.10538 9.70394 6.82165L9.81425 6.59002C9.86952 6.47394 9.98663 6.39999 10.1152 6.39999H11.8571C12.0412 6.39999 12.1904 6.54923 12.1904 6.73333V6.86666C12.1904 7.05076 12.0412 7.19999 11.8571 7.19999H11C10.8159 7.19999 10.6666 7.34923 10.6666 7.53333V7.66666C10.6666 7.85076 10.8159 7.99999 11 7.99999H11.8571C12.0412 7.99999 12.1904 8.14923 12.1904 8.33333V10.8667C12.1904 11.0508 12.0412 11.2 11.8571 11.2H11C10.8159 11.2 10.6666 11.0508 10.6666 10.8667V9.93333C10.6666 9.74923 10.8159 9.59999 11 9.59999H11.0952C11.2793 9.59999 11.4285 9.45076 11.4285 9.26666V9.13333C11.4285 8.94923 11.2793 8.79999 11.0952 8.79999H10.2381C10.054 8.79999 9.90473 8.94923 9.90473 9.13333V10.8667C9.90473 11.0508 9.75549 11.2 9.5714 11.2H9.47616C9.29207 11.2 9.14283 11.0508 9.14283 10.8667V9.93333C9.14283 9.74923 8.99359 9.59999 8.80949 9.59999H8.71426C8.53016 9.59999 8.38092 9.74923 8.38092 9.93333V10.8667C8.38092 11.0508 8.23168 11.2 8.04759 11.2H7.95235C7.76826 11.2 7.61902 11.0508 7.61902 10.8667V9.73333Z" fill="white"/>
<path fill-rule="evenodd" clip-rule="evenodd" d="M19.8096 9.73333C19.8096 9.64774 19.8425 9.56542 19.9015 9.50344L20.3525 9.02988C20.4751 8.90114 20.4751 8.69884 20.3525 8.57011L19.9015 8.09655C19.8425 8.03457 19.8096 7.95225 19.8096 7.86666V6.73333C19.8096 6.54923 19.9588 6.39999 20.1429 6.39999H21.0385C21.2014 6.39999 21.3334 6.53202 21.3334 6.69487C21.3334 7.00912 21.7594 7.10538 21.8945 6.82165L22.0048 6.59002C22.0601 6.47394 22.1772 6.39999 22.3058 6.39999H24.0477C24.2318 6.39999 24.381 6.54923 24.381 6.73333V6.86666C24.381 7.05076 24.2318 7.19999 24.0477 7.19999H23.1905C23.0064 7.19999 22.8572 7.34923 22.8572 7.53333V7.66666C22.8572 7.85076 23.0064 7.99999 23.1905 7.99999H24.0477C24.2318 7.99999 24.381 8.14923 24.381 8.33333V10.8667C24.381 11.0508 24.2318 11.2 24.0477 11.2H23.1905C23.0064 11.2 22.8572 11.0508 22.8572 10.8667V9.93333C22.8572 9.74923 23.0064 9.59999 23.1905 9.59999H23.2858C23.4699 9.59999 23.6191 9.45076 23.6191 9.26666V9.13333C23.6191 8.94923 23.4699 8.79999 23.2858 8.79999H22.4286C22.2445 8.79999 22.0953 8.94923 22.0953 9.13333V10.8667C22.0953 11.0508 21.946 11.2 21.762 11.2H21.6667C21.4826 11.2 21.3334 11.0508 21.3334 10.8667V9.93333C21.3334 9.74923 21.1841 9.59999 21 9.59999H20.9048C20.7207 9.59999 20.5715 9.74923 20.5715 9.93333V10.8667C20.5715 11.0508 20.4222 11.2 20.2381 11.2H20.1429C19.9588 11.2 19.8096 11.0508 19.8096 10.8667V9.73333Z" fill="white"/>
<path fill-rule="evenodd" clip-rule="evenodd" d="M18.2857 7.59625C18.2857 7.81923 18.1666 8.12499 18.0106 8.28881L17.7988 8.51118C17.6469 8.67069 17.6428 8.92499 17.7988 9.08881L18.0106 9.31118C18.1625 9.47069 18.2857 9.77122 18.2857 10.0037V10.7962C18.2857 11.0192 18.1226 11.2 17.9011 11.2H17.1464C16.934 11.2 16.7619 11.0288 16.7619 10.7962V10.0037C16.7619 9.78076 16.6915 9.74765 16.5851 9.97109L16.1767 10.8289C16.0791 11.0338 15.8206 11.2 15.6225 11.2H14.0917C13.8832 11.2 13.7142 11.0144 13.7142 10.8C13.7142 10.5791 13.8773 10.4 14.0988 10.4H14.8535C15.0659 10.4 15.238 10.2144 15.238 9.99999C15.238 9.77908 15.075 9.59999 14.8535 9.59999H14.0988C13.8864 9.59999 13.7142 9.42795 13.7142 9.20761V6.79238C13.7142 6.57567 13.8773 6.39999 14.0988 6.39999H14.8535C15.0659 6.39999 15.238 6.57122 15.238 6.80374V7.59625C15.238 7.81923 15.0613 7.99999 14.8571 7.99999C14.6467 7.99999 14.4761 8.18554 14.4761 8.39999C14.4761 8.62091 14.6392 8.79999 14.8607 8.79999H15.6154C15.8278 8.79999 15.9999 8.61167 15.9999 8.40368V6.79631C15.9999 6.57743 16.1767 6.39999 16.3809 6.39999C16.5913 6.39999 16.7619 6.57122 16.7619 6.80374V7.59625C16.7619 7.81923 16.9386 7.99999 17.1428 7.99999C17.3532 7.99999 17.5238 7.82877 17.5238 7.59625V6.80374C17.5238 6.58076 17.7005 6.39999 17.9047 6.39999C18.1151 6.39999 18.2857 6.57122 18.2857 6.80374V7.59625Z" fill="white"/>
</g>
</svg>
