<svg width="142" height="142" viewBox="0 0 142 142" fill="none" xmlns="http://www.w3.org/2000/svg">
<circle cx="71" cy="71" r="67" fill="white" stroke="#B92728" stroke-width="8"/>
<path d="M80.0793 34.6781C72.0193 40.5161 66.5757 35.7286 64.3967 33.6981C64.3967 33.6981 59.7677 37.0766 59.7747 36.2906C59.8787 32.7286 61.6982 29.1785 64.1197 27.197C64.1267 27.189 64.1337 27.189 64.1402 27.189C66.3542 25.674 68.8792 24.749 71.4738 24.749C72.8643 24.749 74.2343 25.011 75.5418 25.486C76.8493 25.961 78.1088 26.6485 79.2638 27.5005C79.2708 27.5085 79.2708 27.5085 79.2708 27.5085C79.3263 27.5575 79.3883 27.615 79.4438 27.664C79.4853 27.705 79.5268 27.7375 79.5683 27.7785C79.5958 27.803 79.6238 27.8275 79.6513 27.852C79.6723 27.8845 79.6998 27.9095 79.7273 27.934C79.7688 27.975 79.8103 28.016 79.8518 28.057C79.8863 28.098 79.9208 28.1305 79.9558 28.1715C80.0248 28.245 80.1013 28.319 80.1633 28.3925C80.2258 28.458 80.2878 28.5235 80.3433 28.589C80.3643 28.6135 80.3848 28.638 80.4058 28.6625C80.4128 28.6705 80.4263 28.687 80.4333 28.6955C80.4818 28.753 80.5303 28.8185 80.5788 28.8755C80.6343 28.941 80.6893 29.0065 80.7448 29.08C80.7588 29.0965 80.7723 29.1045 80.7793 29.121C80.8483 29.211 80.9178 29.293 80.9798 29.383C82.6543 31.4626 83.3253 34.3776 83.3183 37.2026C83.3183 37.2026 83.4593 34.9836 83.3623 39.3806L80.0793 34.6781ZM61.4297 58.7827C56.4657 61.3592 50.2481 62.6287 47.1331 66.5957C44.3711 70.1578 43.2091 73.6438 43.1841 77.1538C43.1831 77.2753 43.1831 77.3923 43.1841 77.5133C43.1881 77.7553 43.2081 82.8168 43.2081 82.8168H98.3934C98.3934 82.8168 98.4139 77.7558 98.4179 77.5133C98.4194 77.3918 98.4194 77.2748 98.4179 77.1538C98.3929 73.6443 97.2309 70.1578 94.4689 66.5957C91.3544 62.6297 85.1398 61.3577 80.1763 58.7827C78.6408 66.3912 77.0958 72.4088 71.7368 79.2553C71.2148 79.9223 70.9927 80.0193 70.8027 80.0193C70.6132 80.0193 70.3912 79.9223 69.8692 79.2553C64.5107 72.4088 62.9657 66.3907 61.4297 58.7827Z" fill="#B92728"/>
<path d="M95.3999 65.8647C93.0699 62.8967 89.2394 61.3482 85.5359 59.8512C84.8018 59.5542 83.7488 59.0932 82.8138 58.6767C83.5128 57.9597 84.1538 57.1592 84.7248 56.2702C86.8714 52.9357 87.6069 49.2657 87.8174 46.5026C89.3819 46.0346 90.4934 44.7051 90.4934 43.1361V35.6796C90.4934 34.0446 89.3134 32.6881 87.6659 32.2671C86.3884 25.2115 79.6203 20 71.5203 20C63.4207 20 56.6537 25.212 55.3752 32.2681C53.7252 32.6856 52.5437 34.0426 52.5437 35.6831V43.1391C52.5437 45.0971 54.3007 46.6906 56.4597 46.6906H56.9927C57.6467 46.6906 58.1762 46.1606 58.1762 45.5071C58.1762 44.8536 57.6462 44.3236 56.9927 44.3236H56.4597C55.7147 44.3236 54.9107 43.8711 54.9107 43.1396V35.6831C54.9107 34.9646 55.6997 34.5106 56.4307 34.5026C57.0287 34.4956 57.5277 34.0436 57.5937 33.4491C58.2932 27.1315 64.2802 22.367 71.5203 22.367C78.7603 22.367 84.7468 27.1295 85.4469 33.4456C85.5124 34.0391 86.0094 34.4901 86.6064 34.4991C87.3374 34.5096 88.1264 34.9641 88.1264 35.6796V43.1356C88.1264 43.8401 87.3749 44.2881 86.6479 44.3136C86.0284 44.3351 85.5304 44.8316 85.5069 45.4516C85.3704 49.0367 84.3858 52.4237 82.7338 54.9902C81.5103 56.8952 79.3283 59.2277 75.6963 60.1202C75.6808 59.8012 75.6358 59.4602 75.5513 59.1232C75.6943 59.1117 75.8363 59.0812 75.9693 59.0177C76.1918 58.9497 76.4228 58.8707 76.6573 58.7807C77.8158 58.3312 78.8928 57.6627 79.8573 56.7927C79.9603 56.7007 80.0613 56.6027 80.1603 56.5062C80.2603 56.4097 80.3563 56.3137 80.4528 56.2137C82.0103 54.5947 83.1868 52.4307 83.7663 50.1217C83.7998 49.9897 83.8318 49.8562 83.8613 49.7237C83.8908 49.5907 83.9188 49.4587 83.9373 49.3582C84.0353 48.9082 84.1188 48.4571 84.1878 48.0036C84.2103 47.8536 84.2323 47.7011 84.2523 47.5486C84.5758 45.0561 84.5963 40.9816 84.5639 38.2146C84.5644 38.1796 84.5634 38.1361 84.5624 38.0916C84.5424 36.5096 84.5063 35.3801 84.5028 35.2726C84.5118 32.2991 83.5658 29.6621 81.8743 27.887C81.8033 27.8055 81.7308 27.7255 81.6448 27.6325C81.6303 27.6165 81.5823 27.566 81.5668 27.5515L81.2298 27.202C81.2238 27.196 81.1768 27.149 81.1703 27.1425L80.9748 26.9585C80.9018 26.8905 80.8248 26.8225 80.7433 26.7505L80.4758 26.5205C80.4678 26.513 80.4168 26.4695 80.4083 26.4625L79.9863 26.1325C79.9513 26.1065 79.9118 26.0805 79.8723 26.0575C77.2278 24.4265 74.3263 23.5645 71.4793 23.5645C68.8193 23.5645 66.0863 24.326 63.5752 25.7675C63.5312 25.7905 63.4887 25.8165 63.4482 25.844V25.8435C60.5192 27.8685 58.7037 30.9526 58.5917 34.1216C58.5782 35.2611 58.5467 36.3886 58.5152 37.5061C58.4012 41.5551 58.2937 45.3791 59.0147 49.3272C59.7232 53.0662 61.8977 56.3337 64.8317 58.0682C64.9132 58.1162 65.0102 58.1767 65.1082 58.2382C64.8407 58.7377 64.6747 59.2992 64.6747 59.9042V61.2967C64.6747 63.2547 66.2678 64.8482 68.2258 64.8482H72.2238C73.3228 64.8482 74.3793 64.2617 75.0493 63.2802C75.1933 63.0692 75.3188 62.8412 75.4243 62.5987C76.4493 62.4102 77.4238 62.1137 78.3478 61.7257C76.9983 67.7472 75.2723 72.8213 70.8078 78.5253C70.8053 78.5288 70.8053 78.5263 70.8043 78.5258C65.5737 71.8468 64.1007 66.0327 62.5902 58.5487C62.5167 58.1847 62.2767 57.8762 61.9412 57.7152C61.6067 57.5547 61.2147 57.5612 60.8852 57.7322C59.3737 58.5167 57.6927 59.1957 56.0667 59.8527C52.3627 61.3497 48.5332 62.8972 46.1981 65.8702C43.4021 69.4763 42.0291 73.1643 42.0011 77.1388C41.9996 77.2703 41.9996 77.3973 42.0011 77.5328C42.0051 77.7738 42.0251 82.8218 42.0251 82.8218C42.0276 83.4733 42.5566 84.0003 43.2081 84.0003H98.3939C99.0459 84.0003 99.5749 83.4733 99.5774 82.8213C99.5774 82.8213 99.5979 77.7738 99.6019 77.5248V77.1453C99.5734 73.1638 98.2004 69.4758 95.3999 65.8647ZM64.7427 27.8255C66.8983 26.587 69.2268 25.932 71.4768 25.932C73.8763 25.932 76.3398 26.667 78.6043 28.0585L78.8318 28.237C78.8373 28.241 78.8893 28.2815 78.8948 28.285C78.8963 28.2865 78.9653 28.3465 78.9673 28.348L79.5243 28.8465L79.5978 28.92L80.1223 29.48C81.2538 30.6686 81.9398 32.3731 82.0978 34.3726C81.6513 34.0901 81.1333 33.8196 80.5113 33.5756C80.1193 33.4221 79.6748 33.4881 79.3448 33.7496C77.4008 35.2886 72.1238 38.2731 65.1292 32.7676C64.8447 32.5436 64.4742 32.4631 64.1222 32.5466C63.7702 32.6306 63.4762 32.8711 63.3237 33.1991C63.0012 33.8941 61.7977 34.9391 60.9262 35.4971C60.9357 35.0571 60.9507 34.6151 60.9562 34.1781C61.0402 31.7976 62.4547 29.4275 64.7427 27.8255ZM61.3392 48.8947C60.6962 45.3706 60.7612 41.8376 60.8642 38.1171C62.0717 37.7481 63.6592 36.5451 64.6677 35.3741C72.0253 40.5271 77.8973 37.6566 80.2343 36.0351C81.8458 36.8146 82.1368 37.6831 82.1903 37.9826C82.2253 40.6986 82.2163 44.8361 81.9038 47.2416L81.8463 47.6491C81.7848 48.0526 81.7098 48.4546 81.6163 48.8892C81.5958 48.9982 81.5723 49.1067 81.5483 49.2157C81.5243 49.3242 81.4978 49.4332 81.4698 49.5437C80.9888 51.4607 80.0213 53.2467 78.7453 54.5732C78.6693 54.6522 78.5938 54.7277 78.5108 54.8077C78.4328 54.8837 78.3533 54.9612 78.2713 55.0347C77.5203 55.7112 76.6888 56.2297 75.8048 56.5722C75.5948 56.6522 75.3853 56.7227 75.1848 56.7812C74.8913 56.8522 74.4478 56.9407 74.1113 57.0057C73.5533 56.5787 72.9088 56.3507 72.2208 56.3507H68.2228C67.7733 56.3507 67.3468 56.4437 66.9503 56.5967C66.6773 56.4242 66.3253 56.2042 66.0333 56.0312C63.7122 54.6587 61.9127 51.9212 61.3392 48.8947ZM73.3308 60.9347C73.3258 61.1237 73.3218 61.2912 73.3288 61.4467C73.2688 61.6367 73.1908 61.8007 73.0923 61.9452C73.0063 62.0707 72.6903 62.4812 72.2213 62.4812H68.2233C67.5818 62.4812 67.0398 61.9392 67.0398 61.2972V59.9047C67.0398 59.2607 67.5818 58.7172 68.2233 58.7172H72.2213C72.5878 58.7172 72.8753 59.0387 73.0518 59.3082C73.0828 59.3562 73.1178 59.4012 73.1553 59.4442C73.3628 59.6787 73.3393 60.5912 73.3308 60.9347ZM97.2344 77.4948C97.2319 77.6618 97.2214 80.1183 97.2149 81.6333H44.3871C44.3806 80.1188 44.3706 77.6633 44.3676 77.4988C44.3661 77.3873 44.3661 77.2803 44.3676 77.1623C44.3921 73.7203 45.6021 70.5008 48.0637 67.3267C50.0042 64.8557 53.3797 63.4917 56.9527 62.0477C58.1537 61.5622 59.3837 61.0652 60.5772 60.5152C62.0257 67.4207 63.7697 73.3838 68.9373 79.9853C69.4198 80.6013 69.9608 81.2028 70.8023 81.2028C71.6443 81.2028 72.1858 80.6013 72.6683 79.9848C77.8353 73.3838 79.5798 67.4207 81.0283 60.5152C82.2198 61.0647 83.4483 61.5612 84.6474 62.0462C88.2209 63.4912 91.5964 64.8552 93.5324 67.3217C95.9984 70.5013 97.2089 73.7198 97.2334 77.1653V77.4948H97.2344Z" fill="#323232"/>
<path d="M45.688 116H41.56V95.744H45.688V103.872H54.392V95.744H58.584V116H54.392V107.232H45.688V116ZM76.7723 110.048H66.7883C66.8736 111.029 67.2683 111.851 67.9723 112.512C68.6976 113.152 69.5509 113.472 70.5323 113.472C71.9189 113.472 73.3696 113.045 74.8843 112.192L75.9083 114.336C74.3723 115.701 72.4523 116.384 70.1483 116.384C67.6736 116.384 65.7429 115.68 64.3563 114.272C63.0336 112.949 62.3723 111.125 62.3723 108.8C62.3723 106.517 63.1189 104.629 64.6123 103.136C65.9563 101.771 67.6629 101.088 69.7323 101.088C72.0363 101.088 73.8283 101.867 75.1083 103.424C76.2176 104.747 76.7723 106.464 76.7723 108.576V110.048ZM66.5643 107.072H72.7403C72.6336 104.981 71.6203 103.936 69.7003 103.936C67.8443 103.936 66.7989 104.981 66.5643 107.072ZM84.208 95.36V116H80.176V97.472L84.208 95.36ZM91.591 101.472L91.975 102.848C92.871 101.675 94.1297 101.088 95.751 101.088C98.0337 101.088 99.815 101.856 101.095 103.392C102.183 104.715 102.727 106.4 102.727 108.448C102.727 111.136 101.916 113.205 100.295 114.656C99.015 115.808 97.447 116.384 95.591 116.384C95.0363 116.384 94.4497 116.267 93.831 116.032C93.2123 115.797 92.775 115.531 92.519 115.232V121.696H88.551V101.472H91.591ZM92.519 107.136V110.848C92.519 111.595 92.775 112.235 93.287 112.768C93.8203 113.301 94.439 113.568 95.143 113.568C96.103 113.568 96.903 113.109 97.543 112.192C98.183 111.275 98.503 110.133 98.503 108.768C98.503 107.317 98.215 106.165 97.639 105.312C97.0843 104.437 96.327 104 95.367 104C94.6203 104 93.959 104.32 93.383 104.96C92.807 105.579 92.519 106.304 92.519 107.136Z" fill="#B92728"/>
</svg>
