<svg width="35" height="35" viewBox="0 0 35 35" fill="none" xmlns="http://www.w3.org/2000/svg">
<path d="M31.7188 5.46875H3.28125C2.67627 5.46875 2.1875 5.95752 2.1875 6.5625V28.4375C2.1875 29.0425 2.67627 29.5312 3.28125 29.5312H31.7188C32.3237 29.5312 32.8125 29.0425 32.8125 28.4375V6.5625C32.8125 5.95752 32.3237 5.46875 31.7188 5.46875ZM30.3516 9.25586V27.0703H4.64844V9.25586L3.70508 8.521L5.04834 6.79492L6.51123 7.93311H28.4922L29.9551 6.79492L31.2983 8.521L30.3516 9.25586ZM28.4922 7.92969L17.5 16.4746L6.50781 7.92969L5.04492 6.7915L3.70166 8.51758L4.64502 9.25244L16.3208 18.3306C16.6566 18.5914 17.0697 18.733 17.4949 18.733C17.9201 18.733 18.3332 18.5914 18.6689 18.3306L30.3516 9.25586L31.2949 8.521L29.9517 6.79492L28.4922 7.92969Z" fill="white"/>
</svg>
