<svg width="35" height="33" viewBox="0 0 35 33" fill="none" xmlns="http://www.w3.org/2000/svg">
<path d="M29.979 7.47847L26.3389 4.14482C25.8945 3.73751 25.2998 3.50879 24.6709 3.50879C24.042 3.50879 23.4473 3.73438 23.0029 4.14482L19.0825 7.73226C18.6382 8.13957 18.3887 8.68787 18.3887 9.26436C18.3887 9.84399 18.6348 10.386 19.0825 10.7965L22.145 13.6069C21.4474 15.097 20.4449 16.4508 19.1919 17.5954C17.9375 18.7515 16.4712 19.6632 14.8442 20.3087L11.7817 17.4982C11.3374 17.0909 10.7427 16.8622 10.1138 16.8622C9.80357 16.8612 9.49625 16.9169 9.20984 17.0261C8.92342 17.1353 8.66367 17.2958 8.4458 17.4982L4.52197 21.0857C4.07764 21.493 3.82812 22.0413 3.82812 22.6178C3.82812 23.1974 4.07422 23.7395 4.52197 24.1499L8.15869 27.4836C8.91748 28.1791 9.96338 28.577 11.0366 28.577C11.2588 28.577 11.4741 28.5614 11.6929 28.5269C16.2183 27.8439 20.7095 25.635 24.3359 22.3139C27.959 18.9865 30.3652 14.8695 31.1172 10.7181C31.3325 9.54008 30.9019 8.32755 29.979 7.47847ZM28.6938 10.3453C28.0273 14.0393 25.8604 17.7238 22.5962 20.716C19.332 23.7081 15.3159 25.6945 11.2861 26.3055C10.7803 26.3838 10.2607 26.2272 9.8916 25.8919L6.31982 22.6178L10.1069 19.1431L14.2017 22.9029L14.2324 22.9311L14.9707 22.6805C17.2092 21.926 19.242 20.7344 20.9282 19.1882C22.6144 17.642 23.9136 15.7782 24.7358 13.726L25.0093 13.0492L20.8804 9.2675L24.6675 5.79285L28.2393 9.06697C28.6084 9.40535 28.7793 9.88159 28.6938 10.3453Z" fill="white"/>
</svg>
