<svg width="35" height="35" viewBox="0 0 35 35" fill="none" xmlns="http://www.w3.org/2000/svg">
<path d="M9.84375 14.3896C9.84375 14.8248 10.0166 15.2421 10.3243 15.5497C10.632 15.8574 11.0493 16.0303 11.4844 16.0303C11.9195 16.0303 12.3368 15.8574 12.6445 15.5497C12.9521 15.2421 13.125 14.8248 13.125 14.3896C13.125 13.9545 12.9521 13.5372 12.6445 13.2296C12.3368 12.9219 11.9195 12.749 11.4844 12.749C11.0493 12.749 10.632 12.9219 10.3243 13.2296C10.0166 13.5372 9.84375 13.9545 9.84375 14.3896ZM21.875 14.3896C21.875 14.8248 22.0479 15.2421 22.3555 15.5497C22.6632 15.8574 23.0805 16.0303 23.5156 16.0303C23.9507 16.0303 24.368 15.8574 24.6757 15.5497C24.9834 15.2421 25.1562 14.8248 25.1562 14.3896C25.1562 13.9545 24.9834 13.5372 24.6757 13.2296C24.368 12.9219 23.9507 12.749 23.5156 12.749C23.0805 12.749 22.6632 12.9219 22.3555 13.2296C22.0479 13.5372 21.875 13.9545 21.875 14.3896ZM17.5 2.1875C9.04395 2.1875 2.1875 9.04395 2.1875 17.5C2.1875 25.9561 9.04395 32.8125 17.5 32.8125C25.9561 32.8125 32.8125 25.9561 32.8125 17.5C32.8125 9.04395 25.9561 2.1875 17.5 2.1875ZM26.4893 26.4893C25.3203 27.6582 23.96 28.5742 22.4458 29.2168C20.8838 29.8799 19.2192 30.2148 17.5 30.2148C15.7808 30.2148 14.1162 29.8799 12.5508 29.2168C11.0389 28.5783 9.66561 27.6519 8.50732 26.4893C7.33838 25.3203 6.42236 23.96 5.77979 22.4458C5.12012 20.8838 4.78516 19.2192 4.78516 17.5C4.78516 15.7808 5.12012 14.1162 5.7832 12.5508C6.42171 11.0389 7.34807 9.66561 8.51074 8.50732C9.67969 7.33838 11.04 6.42236 12.5542 5.77979C14.1162 5.12012 15.7808 4.78516 17.5 4.78516C19.2192 4.78516 20.8838 5.12012 22.4492 5.7832C23.9611 6.42171 25.3344 7.34807 26.4927 8.51074C27.6616 9.67969 28.5776 11.04 29.2202 12.5542C29.8799 14.1162 30.2148 15.7808 30.2148 17.5C30.2148 19.2192 29.8799 20.8838 29.2168 22.4492C28.5791 23.9605 27.6526 25.3328 26.4893 26.4893ZM22.6953 18.2178H21.0513C20.9077 18.2178 20.7847 18.3271 20.7744 18.4707C20.6445 20.1626 19.2261 21.499 17.5 21.499C15.7739 21.499 14.3521 20.1626 14.2256 18.4707C14.2153 18.3271 14.0923 18.2178 13.9487 18.2178H12.3047C12.2676 18.2177 12.2309 18.2252 12.1968 18.2398C12.1627 18.2544 12.1319 18.2758 12.1063 18.3026C12.0808 18.3295 12.0609 18.3613 12.048 18.396C12.0351 18.4308 12.0294 18.4678 12.0312 18.5049C12.1816 21.3862 14.5776 23.6865 17.5 23.6865C20.4224 23.6865 22.8184 21.3862 22.9688 18.5049C22.9706 18.4678 22.9649 18.4308 22.952 18.396C22.9391 18.3613 22.9192 18.3295 22.8937 18.3026C22.8681 18.2758 22.8373 18.2544 22.8032 18.2398C22.7691 18.2252 22.7324 18.2177 22.6953 18.2178Z" fill="white"/>
</svg>
