<svg width="12" height="18" viewBox="0 0 12 18" fill="none" xmlns="http://www.w3.org/2000/svg">
<path d="M6.00001 0.666992C2.77501 0.666992 0.166672 3.27533 0.166672 6.50033C0.166672 7.95033 0.583338 9.30866 1.34167 10.5337C2.13334 11.817 3.17501 12.917 3.97501 14.2003C4.36667 14.8253 4.65001 15.4087 4.95001 16.0837C5.16667 16.542 5.34167 17.3337 6.00001 17.3337C6.65834 17.3337 6.83334 16.542 7.04167 16.0837C7.35001 15.4087 7.62501 14.8253 8.01667 14.2003C8.81667 12.9253 9.85834 11.8253 10.65 10.5337C11.4167 9.30866 11.8333 7.95033 11.8333 6.50033C11.8333 3.27533 9.22501 0.666992 6.00001 0.666992ZM6.00001 8.79199C4.85001 8.79199 3.91667 7.85866 3.91667 6.70866C3.91667 5.55866 4.85001 4.62533 6.00001 4.62533C7.15001 4.62533 8.08334 5.55866 8.08334 6.70866C8.08334 7.85866 7.15001 8.79199 6.00001 8.79199Z" fill="#B92728"/>
</svg>
